# Blender 3.3.1
# www.blender.org
g Cube_Mesh
v 0.001318 -0.000011 -0.067772
v 0.063494 -0.000011 -0.002573
v -0.060858 0.001558 -0.001198
v 0.000943 0.061343 -0.000653
v 0.001318 -0.000011 0.056581
v 0.001553 -0.058011 -0.000866
vn 0.9997 -0.0029 -0.0260
vn -0.0015 -0.9994 -0.0355
vn -0.0048 0.0147 -0.9999
vn -0.9999 0.0090 -0.0125
vn 0.0038 0.0128 0.9999
vn 0.0028 0.9994 -0.0337
vt 0.625000 0.500000
vt 0.625000 0.750000
vt 0.875000 0.500000
vt 0.000000 0.000000
vt 0.875000 0.750000
vt 0.000000 0.000000
s 1
f 3/3/1 4/4/2 5/5/3
f 5/5/3 4/4/2 2/2/4
f 2/2/4 4/4/2 1/1/5
f 4/4/2 3/3/1 1/1/5
f 1/1/5 6/6/6 2/2/4
f 1/1/5 3/3/1 6/6/6
f 6/6/6 3/3/1 5/5/3
f 6/6/6 5/5/3 2/2/4
