# Blender 3.3.1
# www.blender.org
g exit_hall_Mesh
v -5.556918 -7.860140 5.569909
v -6.536449 -7.860140 4.376347
v -5.556918 -5.869662 5.569909
v -6.536449 -5.928575 4.376347
v -6.046683 -3.938097 4.973127
v -17.557108 -7.794165 15.940472
v -18.536640 -7.794165 14.746910
v -17.557108 -5.803688 15.940472
v -18.536640 -5.862599 14.746910
v -18.046875 -3.872122 15.343691
vn 0.6427 0.1890 0.7425
vn 0.4645 -0.7004 0.5419
vn 0.4557 -0.7137 0.5319
vn -0.0100 0.9998 -0.0180
vn -0.6420 0.1849 -0.7441
vn 0.0097 0.9999 0.0049
vn -0.6423 0.1829 -0.7443
vn -0.4615 -0.7118 -0.5295
vn -0.4677 -0.7022 -0.5368
vn 0.6427 0.1888 0.7425
vt 0.375000 0.500000
vt 0.580294 0.080294
vt 0.550447 0.116663
vt 0.343750 0.500000
vt 0.375000 0.563179
vt 0.343750 0.561309
vt 0.359375 0.624487
vt 0.375000 0.500000
vt 0.580294 0.080294
vt 0.343750 0.500000
vt 0.550447 0.116663
vt 0.375000 0.563179
vt 0.343750 0.561309
vt 0.359375 0.624487
s 1
f 3/5/1 6/8/2 1/1/3
f 5/7/4 9/13/5 10/14/6
f 4/6/7 7/10/8 9/13/5
f 1/2/3 7/11/8 2/3/9
f 3/5/1 10/14/6 8/12/10
f 3/5/1 8/12/10 6/8/2
f 5/7/4 4/6/7 9/13/5
f 4/6/7 2/4/9 7/10/8
f 1/2/3 6/9/2 7/11/8
f 3/5/1 5/7/4 10/14/6
