# Blender 3.3.1
# www.blender.org
g enlarged_frustum_Mesh
v 0.000130 0.000000 0.000000
v -0.099870 0.060719 -0.120383
v -0.099870 -0.060719 -0.120383
v -0.099870 0.060719 0.120383
v -0.099870 -0.060719 0.120383
vn 0.5190 0.8548 -0.0000
vn 0.7692 -0.0000 0.6390
vn -1.0000 -0.0000 -0.0000
vn 0.5190 -0.8548 -0.0000
vn 0.7692 -0.0000 -0.6390
vt 0.625000 0.500000
vt 0.625000 0.750000
vt 0.375000 0.750000
vt 0.375000 0.500000
vt 0.875000 0.500000
vt 0.625000 0.250000
vt 0.125000 0.500000
vt 0.375000 0.250000
vt 0.875000 0.750000
vt 0.625000 1.000000
vt 0.625000 0.000000
vt 0.375000 1.000000
vt 0.375000 0.000000
vt 0.125000 0.750000
s 0
f 1/1/1 2/5/1 4/9/1
f 1/2/2 4/10/2 5/12/2
f 4/11/3 3/8/3 5/13/3
f 3/7/4 1/3/4 5/14/4
f 3/8/5 2/6/5 1/4/5
f 4/11/3 2/6/3 3/8/3
