# Blender 3.3.1
# www.blender.org
g static_hitbox_Mesh
v -0.004438 -0.990574 -0.003493
v -0.193441 0.570225 0.130842
v -0.006137 1.003818 -0.000849
v -0.193441 0.570225 -0.152507
v 0.193441 0.570225 0.130842
v 0.193441 0.570225 -0.152507
vn -0.0000 0.0858 -0.9963
vn -0.0000 -0.2906 -0.9568
vn 0.9927 0.1202 -0.0000
vn -0.9921 0.1258 -0.0000
vn 0.9180 -0.3966 -0.0000
vn -0.0000 0.0950 0.9955
vn -0.0000 -0.3302 0.9439
vn -0.9084 -0.4181 -0.0000
vt 0.000000 0.000000
vt 0.000000 0.000000
vt 0.000000 0.000000
vt 0.000000 0.000000
vt 0.000000 0.000000
vt 0.000000 0.000000
s 0
f 5/5/1 1/1/1 2/2/1
f 5/5/2 2/2/2 3/3/2
f 2/2/3 1/1/3 4/4/3
f 5/5/4 6/6/4 1/1/4
f 4/4/5 3/3/5 2/2/5
f 1/1/6 6/6/6 4/4/6
f 6/6/7 3/3/7 4/4/7
f 3/3/8 6/6/8 5/5/8
