# Blender 3.3.1
# www.blender.org
g path_to_town_Mesh
v 7.737593 7.892657 1.537063
v 105.197716 -9.476800 -75.555054
v 95.218925 -9.776789 -79.759346
v 65.046112 -8.042336 -97.727249
v 72.384857 -8.493614 -97.040222
v 85.693153 -10.155482 -87.350441
v 116.711349 -9.476800 -112.081062
v 106.732635 -9.775442 -116.285416
v 76.711998 -5.354860 -134.359344
v 83.982330 -7.002974 -133.624756
v 97.226433 -9.800259 -123.890236
v 113.197289 -9.476800 -191.719315
v 103.167274 -9.776789 -187.638733
v 69.244873 -7.410304 -179.043549
v 74.844650 -8.481227 -183.716354
v 91.063675 -10.151861 -186.273941
v 72.119423 -17.501116 -256.870819
v 65.165375 -17.801102 -248.570587
v 39.191101 -17.242334 -224.971573
v 41.956947 -17.330032 -231.782959
v 55.107723 -18.179796 -241.699738
v 34.386429 -20.686874 -290.601837
v 27.432386 -20.986864 -282.301605
v 1.419576 -21.000114 -258.635101
v 4.217504 -20.611601 -265.502655
v 17.374733 -21.365557 -275.430756
v -3.386333 -32.019997 -315.099823
v -13.739819 -32.319981 -311.928406
v -48.446945 -32.333233 -306.255280
v -42.359142 -31.944717 -310.489685
v -25.917068 -32.698677 -311.646515
v -17.778507 -42.280003 -335.112671
v -28.583176 -42.579990 -335.827972
v -63.040642 -42.593239 -342.860199
v -55.845383 -42.204723 -344.654541
v -40.065605 -42.958683 -339.892303
v -30.642027 -48.471889 -380.849640
v -41.446697 -48.771877 -381.564911
v -75.904167 -48.785126 -388.597168
v -68.708900 -48.396614 -390.391479
v -52.929123 -49.150570 -385.629242
v -36.441124 -56.007034 -421.421021
v -44.606281 -56.307022 -428.533173
v -67.768906 -56.320274 -454.995667
v -60.956367 -55.931755 -452.066345
v -51.282734 -56.685715 -438.720886
v -12.429216 -74.418633 -466.014587
v -20.594376 -74.718628 -473.126709
v -43.757000 -74.731880 -499.589203
v -36.944466 -74.343369 -496.659882
v -27.270828 -75.097321 -483.314453
v 33.879452 -106.355141 -498.030426
v 25.714293 -106.655121 -505.142578
v 2.551671 -106.668373 -531.605103
v 9.364205 -106.279861 -528.675781
v 19.037840 -107.033821 -515.330322
v 102.199036 -117.431458 -500.603149
v 94.033875 -117.731438 -507.715302
v 70.871254 -117.744690 -534.177795
v 77.683792 -117.356178 -531.248535
v 87.357422 -118.110138 -517.903076
v 70.935905 -5.703327 -116.082817
v 73.057457 -4.975751 -156.748291
v 54.233616 -12.223659 -202.083176
v 20.286072 -19.407234 -241.769623
v -64.130180 19.701010 -271.862000
v -29.028812 28.124117 -176.994034
v 47.986042 8.198750 -145.708939
v -2.749027 31.683144 -167.850693
v -93.369240 -6.928823 -279.558777
v -107.962936 -17.188831 -316.163696
v -120.826462 -23.380718 -361.900665
v -112.691200 -44.017197 -428.299133
v -135.332947 10.990751 -282.283539
v -149.926636 0.730745 -318.888458
v -162.790161 -5.461143 -364.625397
v -154.654892 -12.996290 -431.023895
v 52.646805 -48.655308 -307.180084
v 14.874042 -59.988430 -331.678101
v 0.481868 -70.248436 -351.690948
v -12.381652 -76.440323 -397.427887
v -12.626895 -83.975471 -423.188995
v 11.905411 -98.212006 -455.093781
v 72.694778 -61.990898 -326.069031
v 52.153152 -73.324020 -343.934692
v 50.992855 -83.584030 -365.903259
v 36.736584 -89.775917 -405.747803
v 34.580067 -97.311066 -428.534882
v 44.900185 -105.944191 -451.020172
v 87.751457 -65.938103 -300.431824
v 97.046776 -79.995407 -345.477417
v 95.732208 -83.584030 -365.286163
v 91.657997 -89.775917 -404.822144
v 95.055328 -97.311066 -429.306244
v 93.959198 -105.990448 -454.105621
v 116.774910 -44.483452 -74.699806
v 128.288544 -44.483452 -111.225822
v 124.774483 -44.483452 -190.864075
v 135.034698 -70.482529 -82.243118
v 146.548325 -70.482529 -118.769135
v 143.034271 -70.482529 -198.407394
v 114.636360 -63.836987 -263.223480
v 108.810905 -84.748161 -324.975800
v 121.594780 -86.594254 -264.135834
v -113.424408 -24.313053 -464.501434
v -89.412506 -42.724663 -509.094971
v -74.851952 -53.876793 -537.893982
vn 0.0204 0.9997 0.0113
vn -0.0201 0.9998 -0.0002
vn 0.0677 0.9975 0.0203
vn 0.1011 0.9906 0.0917
vn 0.3028 0.9517 0.0505
vn 0.2980 0.9420 0.1542
vn 0.2063 0.9783 0.0200
vn -0.0287 0.9995 -0.0090
vn 0.6099 0.7884 0.0810
vn -0.0418 0.9982 -0.0437
vn 0.0180 0.9967 -0.0795
vn 0.2479 0.9492 -0.1938
vn 0.4657 0.8731 -0.1442
vn 0.0656 0.9888 -0.1341
vn 0.5859 0.7749 -0.2372
vn -0.0815 0.9955 -0.0490
vn -0.0482 0.9951 -0.0864
vn 0.0766 0.9645 -0.2529
vn 0.2095 0.9183 -0.3360
vn -0.0626 0.9944 -0.0857
vn -0.0753 0.9894 -0.1244
vn -0.1035 0.9912 -0.0822
vn 0.3265 0.8984 -0.2939
vn -0.1134 0.9900 -0.0845
vn 0.0613 0.9717 -0.2282
vn 0.0949 0.9736 -0.2075
vn -0.0008 0.9491 -0.3149
vn -0.0745 0.9708 -0.2280
vn 0.0912 0.8666 -0.4907
vn -0.0722 0.9494 -0.3058
vn 0.1020 0.9268 -0.3615
vn 0.0286 0.9615 -0.2732
vn 0.0778 0.9655 -0.2484
vn 0.1272 0.9635 -0.2354
vn 0.0036 0.9799 -0.1993
vn 0.2584 0.8668 -0.4265
vn 0.0060 0.9884 -0.1516
vn 0.0637 0.9864 -0.1514
vn -0.0012 0.9917 -0.1287
vn 0.1541 0.9744 -0.1637
vn 0.3740 0.8995 -0.2260
vn 0.2485 0.9549 -0.1624
vn 0.1585 0.9666 -0.2012
vn 0.4160 0.8939 -0.1673
vn 0.1809 0.9637 -0.1964
vn 0.2998 0.9508 -0.0777
vn 0.4699 0.8734 -0.1275
vn 0.3062 0.9060 -0.2923
vn 0.3687 0.8975 -0.2420
vn 0.3994 0.8942 -0.2022
vn 0.2556 0.8952 -0.3651
vn 0.2229 0.9089 -0.3524
vn 0.2652 0.9273 -0.2641
vn 0.2844 0.9417 -0.1800
vn 0.2581 0.8609 -0.4384
vn 0.1541 0.9799 -0.1270
vn 0.2475 0.9542 -0.1680
vn 0.1502 0.9705 -0.1888
vn 0.1549 0.9816 -0.1121
vn 0.1297 0.8979 -0.4208
vn 0.2910 0.8061 -0.5153
vn 0.4286 0.9017 -0.0566
vn 0.2359 0.8388 -0.4907
vn 0.4838 0.5105 -0.7109
vn 0.4606 0.8843 0.0764
vn 0.4097 0.8910 -0.1956
vn 0.3569 0.8790 -0.3161
vn 0.1536 0.6092 -0.7780
vn 0.5429 0.8388 0.0399
vn 0.3965 0.9074 -0.1390
vn 0.3913 0.8711 -0.2969
vn 0.3548 0.7450 -0.5649
vn 0.5536 0.8265 -0.1022
vn 0.4483 0.8938 -0.0114
vn 0.1836 0.7694 -0.6118
vn 0.2596 0.7364 -0.6248
vn 0.4190 0.8141 -0.4021
vn 0.5250 0.8148 -0.2460
vn 0.1183 0.9596 -0.2554
vn 0.0856 0.8689 -0.4874
vn 0.1374 0.9437 -0.3011
vn 0.0741 0.9531 -0.2935
vn 0.1202 0.9698 -0.2123
vn 0.1004 0.9803 -0.1698
vn 0.0004 0.9738 -0.2276
vn 0.2814 0.8384 -0.4668
vn 0.4412 0.8675 -0.2300
vn -0.0098 0.9482 -0.3175
vn 0.1085 0.9712 -0.2119
vn -0.0169 0.9591 -0.2824
vn 0.1424 0.8987 -0.4149
vn 0.6633 0.6858 -0.2996
vn 0.8475 0.4920 -0.1991
vn 0.8778 0.3911 0.2767
vn 0.8897 0.4369 0.1327
vn 0.8266 0.5566 0.0825
vn 0.8026 0.5686 -0.1802
vn 0.8241 0.5034 0.2598
vn 0.7690 0.4730 -0.4301
vn 0.8261 0.4023 -0.3946
vn 0.5812 0.8036 -0.1284
vn 0.5726 0.8196 -0.0185
vn 0.5774 0.8161 -0.0253
vn 0.5352 0.8013 0.2673
vn 0.1282 0.9778 0.1657
vn 0.5547 0.8135 0.1748
vt 0.449212 0.350922
vt 0.795777 0.377191
vt 0.328454 0.537906
vt 0.495860 0.394897
vt 0.824198 0.225725
vt 0.463932 0.460186
vt 0.791202 0.208524
vt 0.520279 0.424538
vt 0.361695 0.526142
vt 0.451168 0.449708
vt 0.481515 0.290075
vt 0.503941 0.276846
vt 0.568947 0.230061
vt 0.564202 0.219567
vt 0.508198 0.376919
vt 0.345798 0.515651
vt 0.861109 0.314400
vt 0.822968 0.222662
vt 0.800240 0.445886
vt 0.462957 0.459339
vt 0.516668 0.424302
vt 0.778842 0.213879
vt 0.777483 0.441929
vt 0.440870 0.452804
vt 0.364353 0.518169
vt 0.728125 0.444270
vt 0.651429 0.151782
vt 0.339281 0.289081
vt 0.790718 0.392484
vt 0.313005 0.510049
vt 0.809816 0.737871
vt 0.447335 0.445714
vt 0.780397 0.442126
vt 0.329143 0.721530
vt 0.315203 0.713089
vt 0.755017 0.442085
vt 0.352391 0.520796
vt 0.702355 0.447154
vt 0.626065 0.111548
vt 0.252033 0.274953
vt 0.529614 0.285429
vt 0.305121 0.493170
vt 0.740466 0.380367
vt 0.678990 0.779823
vt 0.667961 0.446902
vt 0.290517 0.694864
vt 0.405069 0.408841
vt 0.709000 0.446403
vt 0.295435 0.698854
vt 0.654786 0.480699
vt 0.326133 0.542102
vt 0.678273 0.449811
vt 0.283972 0.689032
vt 0.910499 0.351833
vt 0.362408 0.136115
vt 0.531356 0.249437
vt 0.520025 0.403359
vt 0.820752 0.254028
vt 0.499545 0.239461
vt 0.867684 0.306791
vt 0.562611 0.505061
vt 0.612439 0.474996
vt 0.248156 0.646996
vt 0.648825 0.239817
vt 0.276770 0.682250
vt 0.894680 0.296364
vt 0.646009 0.190181
vt 0.285597 0.690488
vt 0.911523 0.369571
vt 0.636334 0.595976
vt 0.575022 0.573048
vt 0.480355 0.410102
vt 0.887901 0.506237
vt 0.717217 0.601006
vt 0.517296 0.619931
vt 0.585440 0.591823
vt 0.746468 0.411639
vt 0.436782 0.450792
vt 0.510774 0.511977
vt 0.539105 0.450482
vt 0.518878 0.520366
vt 0.618538 0.244409
vt 0.243201 0.528782
vt 0.847571 0.331845
vt 0.647804 0.193780
vt 0.513968 0.239531
vt 0.603979 0.454595
vt 0.888076 0.440735
vt 0.763571 0.414707
vt 0.588962 0.593526
vt 0.493160 0.432504
vt 0.766949 0.588605
vt 0.714921 0.616802
vt 0.635454 0.549021
vt 0.516573 0.424311
vt 0.493965 0.498351
vt 0.414582 0.539544
vt 0.647794 0.431619
vt 0.403521 0.185258
vt 0.774039 0.396877
vt 0.471011 0.366898
vt 0.591109 0.594561
vt 0.428488 0.426284
vt 0.880154 0.551011
vt 0.520500 0.547278
vt 0.638147 0.581878
vt 0.453679 0.610053
vt 0.742956 0.564825
vt 0.612509 0.565168
vt 0.560554 0.354938
vt 0.577296 0.365970
vt 0.409985 0.527450
vt 0.795317 0.526928
vt 0.514088 0.365106
vt 0.409609 0.505943
vt 0.409487 0.509192
vt 0.551565 0.358106
vt 0.413343 0.514665
vt 0.407226 0.522110
vt 0.656868 0.536146
vt 0.668779 0.294441
vt 0.550374 0.700023
vt 0.419713 0.563413
vt 0.665409 0.543301
vt 0.559665 0.706026
vt 0.411952 0.514228
vt 0.543525 0.362768
vt 0.426172 0.524025
vt 0.417746 0.556943
vt 0.545178 0.685980
vt 0.434269 0.536830
vt 0.709578 0.531093
vt 0.626321 0.659213
vt 0.721421 0.290789
vt 0.712301 0.532795
vt 0.631389 0.657306
vt 0.671102 0.545795
vt 0.440002 0.542544
vt 0.729268 0.149901
vt 0.450308 0.549699
vt 0.699463 0.535227
vt 0.458694 0.553655
vt 0.710718 0.531877
vt 0.628423 0.658516
vt 0.713705 0.534612
vt 0.634054 0.657184
vt 0.725089 0.303622
vt 0.722550 0.331900
vt 0.632261 0.655034
vt 0.713435 0.535141
vt 0.772860 0.157521
vt 0.713154 0.533784
vt 0.630786 0.650816
vt 0.711701 0.526300
vt 0.713215 0.533665
vt 0.835263 0.210837
vt 0.724714 0.300320
vt 0.720057 0.343374
vt 0.630399 0.647395
vt 0.711176 0.523784
vt 0.708606 0.507339
vt 0.707975 0.502819
vt 0.632010 0.619717
vt 0.827968 0.239360
vt 0.467651 0.463438
vt 0.796353 0.444654
vt 0.459388 0.456234
vt 0.313477 0.711994
vt 0.430515 0.431047
vt 0.650273 0.185865
vt 0.271904 0.677307
vt 0.193765 0.168916
vt 0.161197 0.385433
vt 0.292066 0.310600
vt 0.564547 0.888938
vt 0.649213 0.254203
vt 0.405446 0.371752
vt 0.244758 0.641662
vt 0.787356 0.731195
vt 0.462308 0.458779
vt 0.567549 0.889738
vt 0.748394 0.734979
vt 0.430515 0.431047
vt 0.189489 0.244337
vt 0.245084 0.278125
vt 0.254695 0.304294
vt 0.442774 0.284791
vt 0.547179 0.248577
vt 0.884991 0.501041
vt 0.483667 0.406740
vt 0.536817 0.623637
vt 0.668617 0.467764
vt 0.635095 0.496061
vt 0.192473 0.262359
vt 0.171864 0.206249
vt 0.296181 0.485815
vt 0.366903 0.399041
vt 0.837580 0.437303
vt 0.555389 0.341924
vt 0.582222 0.613387
vt 0.785147 0.582976
vt 0.385672 0.122512
vt 0.455543 0.280693
vt 0.456792 0.279785
vt 0.545009 0.229387
vt 0.814371 0.417796
vt 0.819375 0.367624
vt 0.631271 0.463917
vt 0.513426 0.221523
vt 0.630156 0.596866
vt 0.581777 0.562113
vt 0.441149 0.422836
vt 0.629001 0.544970
vt 0.505553 0.380949
vt 0.553887 0.609134
vt 0.640131 0.308918
vt 0.716973 0.286260
vt 0.310212 0.289192
vt 0.707559 0.115568
vt 0.475930 0.302392
vt 0.634821 0.198438
vt 0.543770 0.198886
vt 0.506861 0.244568
vt 0.636861 0.118309
vt 0.474215 0.369924
vt 0.686374 0.638187
vt 0.736516 0.129812
vt 0.601655 0.330333
vt 0.796613 0.163985
vt 0.712713 0.284419
vt 0.700406 0.534145
vt 0.827815 0.199082
vt 0.515596 0.277326
vt 0.206650 0.235266
vt 0.279583 0.286944
vt 0.398428 0.215594
vt 0.707154 0.100149
vt 0.502044 0.230926
vt 0.517056 0.137390
vt 0.540100 0.201713
vt 0.697905 0.120643
vt 0.782871 0.153251
vt 0.820934 0.189659
vt 0.478540 0.167354
vt 0.494316 0.240639
vt 0.273099 0.286052
vt 0.695282 0.101611
vt 0.298578 0.209622
vt 0.267685 0.188900
vt 0.191419 0.222219
vt 0.707697 0.100430
vt 0.472981 0.143171
vt 0.224927 0.251540
vt 0.117487 0.157788
vt 0.167559 0.173926
vt 0.204513 0.233366
vt 0.271644 0.194320
vt 0.168427 0.174107
vt 0.527173 0.371907
vt 0.494233 0.601899
vt 0.696169 0.186100
vt 0.762286 0.136683
s 1
f 6/9/1 8/16/2 11/25/3
f 5/7/4 9/18/5 62/164/6
f 5/8/4 11/24/3 10/21/7
f 3/4/8 7/11/9 8/15/2
f 11/25/3 13/30/10 16/37/11
f 10/23/7 14/33/12 63/166/13
f 10/23/7 16/38/11 15/36/14
f 8/17/2 12/27/15 13/29/10
f 16/37/11 18/42/16 21/51/17
f 15/35/14 19/46/18 64/168/19
f 15/36/14 21/52/17 20/48/20
f 12/28/15 18/43/16 13/29/10
f 20/49/20 26/68/21 25/65/22
f 17/40/23 23/59/24 18/41/16
f 21/54/17 23/60/24 26/69/21
f 20/50/20 24/64/25 65/170/26
f 25/66/22 31/88/27 30/84/28
f 23/61/24 27/71/29 28/75/30
f 26/70/21 28/76/30 31/90/27
f 25/67/22 29/82/31 24/64/25
f 31/89/27 33/96/32 36/105/33
f 30/86/28 34/99/34 29/79/31
f 30/87/28 36/106/33 35/102/35
f 28/78/30 32/91/36 33/95/32
f 36/107/33 38/112/37 41/119/38
f 34/100/34 40/114/39 39/113/40
f 35/104/35 41/117/38 40/114/39
f 33/98/32 37/110/41 38/111/37
f 40/115/39 46/131/42 45/128/43
f 38/111/37 42/122/44 43/125/45
f 41/119/38 43/123/45 46/129/42
f 40/116/39 44/126/46 39/113/40
f 43/124/45 47/132/47 48/135/48
f 46/130/42 48/136/48 51/144/49
f 45/128/43 49/138/50 44/126/46
f 45/128/43 51/142/49 50/140/51
f 51/143/49 55/152/52 50/141/51
f 47/133/47 53/149/53 48/136/48
f 51/144/49 53/149/53 56/153/54
f 50/141/51 54/150/55 49/137/50
f 56/154/54 60/161/56 55/152/52
f 52/147/57 58/158/58 53/148/53
f 53/149/53 61/163/59 56/153/54
f 55/152/52 59/160/60 54/150/55
f 67/178/61 65/171/26 24/63/25
f 68/180/62 62/165/6 9/20/5
f 19/44/18 67/175/61 69/181/63
f 69/182/63 68/179/62 14/31/12
f 68/180/62 63/167/13 14/32/12
f 64/169/19 69/183/63 14/32/12
f 24/64/25 29/82/31 67/176/61
f 67/177/61 29/80/31 66/172/64
f 39/113/40 73/192/65 72/189/66
f 34/100/34 72/189/66 71/188/67
f 29/83/31 71/187/67 70/184/68
f 72/189/66 77/201/69 76/198/70
f 72/190/66 75/196/71 71/187/67
f 71/188/67 74/195/72 70/185/68
f 29/81/31 70/186/68 66/173/64
f 70/186/68 74/194/72 66/174/64
f 47/134/47 82/216/73 83/217/74
f 27/73/29 78/204/75 79/206/76
f 32/93/36 79/208/76 80/210/77
f 37/109/41 80/211/77 81/213/78
f 42/122/44 81/214/78 82/215/73
f 80/212/77 87/225/79 81/214/78
f 78/205/75 85/221/80 79/207/76
f 82/216/73 87/226/79 88/228/81
f 80/212/77 85/222/80 86/223/82
f 83/217/74 88/228/81 89/230/83
f 47/134/47 83/217/74 52/147/57
f 83/217/74 89/230/83 52/147/57
f 52/145/57 89/231/83 57/155/84
f 86/224/82 93/241/85 87/227/79
f 84/219/86 91/237/87 85/220/80
f 88/229/81 93/241/85 94/242/88
f 85/222/80 92/240/89 86/223/82
f 89/232/83 94/242/88 95/243/90
f 22/55/91 17/39/23 78/202/75
f 17/39/23 84/219/86 78/203/75
f 17/40/23 90/234/92 84/218/86
f 89/232/83 95/243/90 57/156/84
f 7/13/9 98/249/93 12/27/15
f 7/14/9 96/244/94 97/247/95
f 98/250/93 100/253/96 101/254/97
f 97/247/95 99/251/98 100/252/96
f 12/27/15 98/248/93 17/39/23
f 98/250/93 102/255/99 17/40/23
f 98/250/93 101/254/97 102/255/99
f 17/40/23 102/255/99 90/234/92
f 90/234/92 104/258/100 103/256/101
f 102/255/99 101/254/97 104/258/100
f 103/256/101 91/235/87 90/234/92
f 103/257/101 92/238/89 91/236/87
f 49/139/50 107/262/102 106/261/103
f 44/127/46 106/261/103 105/259/104
f 44/127/46 105/259/104 73/192/65
f 77/200/69 73/191/65 105/260/104
f 6/9/1 3/3/8 8/16/2
f 62/164/6 4/5/105 5/7/4
f 5/7/4 10/22/7 9/18/5
f 5/8/4 6/10/1 11/24/3
f 3/4/8 2/1/106 7/11/9
f 11/25/3 8/16/2 13/30/10
f 63/166/13 9/19/5 10/23/7
f 10/23/7 15/36/14 14/33/12
f 10/23/7 11/26/3 16/38/11
f 8/17/2 7/12/9 12/27/15
f 16/37/11 13/30/10 18/42/16
f 64/168/19 14/34/12 15/35/14
f 15/35/14 20/49/20 19/46/18
f 15/36/14 16/38/11 21/52/17
f 12/28/15 17/40/23 18/43/16
f 20/49/20 21/53/17 26/68/21
f 17/40/23 22/56/91 23/59/24
f 21/54/17 18/43/16 23/60/24
f 65/170/26 19/45/18 20/50/20
f 20/50/20 25/67/22 24/64/25
f 25/66/22 26/69/21 31/88/27
f 23/61/24 22/57/91 27/71/29
f 26/70/21 23/62/24 28/76/30
f 25/67/22 30/85/28 29/82/31
f 31/89/27 28/77/30 33/96/32
f 30/86/28 35/103/35 34/99/34
f 30/87/28 31/90/27 36/106/33
f 28/78/30 27/72/29 32/91/36
f 36/107/33 33/97/32 38/112/37
f 34/100/34 35/104/35 40/114/39
f 35/104/35 36/108/33 41/117/38
f 33/98/32 32/92/36 37/110/41
f 40/115/39 41/118/38 46/131/42
f 38/111/37 37/110/41 42/122/44
f 41/119/38 38/112/37 43/123/45
f 40/116/39 45/128/43 44/126/46
f 43/124/45 42/120/44 47/132/47
f 46/130/42 43/125/45 48/136/48
f 45/128/43 50/140/51 49/138/50
f 45/128/43 46/131/42 51/142/49
f 51/143/49 56/154/54 55/152/52
f 47/133/47 52/146/57 53/149/53
f 51/144/49 48/136/48 53/149/53
f 50/141/51 55/152/52 54/150/55
f 56/154/54 61/162/59 60/161/56
f 52/147/57 57/157/84 58/158/58
f 53/149/53 58/159/58 61/163/59
f 55/152/52 60/161/56 59/160/60
f 67/178/61 19/46/18 65/171/26
f 68/180/62 4/6/105 62/165/6
f 68/180/62 9/20/5 63/167/13
f 64/169/19 19/47/18 69/183/63
f 39/113/40 44/127/46 73/192/65
f 34/100/34 39/113/40 72/189/66
f 29/83/31 34/101/34 71/187/67
f 72/189/66 73/193/65 77/201/69
f 72/190/66 76/199/70 75/196/71
f 71/188/67 75/197/71 74/195/72
f 47/134/47 42/121/44 82/216/73
f 27/73/29 22/58/91 78/204/75
f 32/93/36 27/74/29 79/208/76
f 37/109/41 32/94/36 80/211/77
f 42/122/44 37/110/41 81/214/78
f 80/212/77 86/223/82 87/225/79
f 78/205/75 84/219/86 85/221/80
f 82/216/73 81/214/78 87/226/79
f 80/212/77 79/209/76 85/222/80
f 83/217/74 82/216/73 88/228/81
f 86/224/82 92/239/89 93/241/85
f 84/219/86 90/233/92 91/237/87
f 88/229/81 87/227/79 93/241/85
f 85/222/80 91/237/87 92/240/89
f 89/232/83 88/229/81 94/242/88
f 7/13/9 97/247/95 98/249/93
f 7/14/9 2/2/106 96/244/94
f 98/250/93 97/246/95 100/253/96
f 97/247/95 96/245/94 99/251/98
f 90/234/92 102/255/99 104/258/100
f 49/139/50 54/151/55 107/262/102
f 44/127/46 49/139/50 106/261/103
